inDegrees=no
num_controls=7
num_derivatives=13
num_iterations=67
num_multipliers=7
num_parameters=0
num_slacks=7
num_states=26
objective=0.426025
objective_accelerations=0.060221
objective_balance=0.001371
objective_effort=0.015176
objective_height=0.343353
objective_ligament=0.005904
solver_duration=981.252790
status=Solve_Succeeded
success=true
DataType=double
version=3
OpenSimVersion=4.5
endheader
time	/jointset/ground_pelvis/pelvis_tilt/value	/jointset/ground_pelvis/pelvis_tx/value	/jointset/ground_pelvis/pelvis_ty/value	/jointset/hip_l/hip_flexion_l/value	/jointset/hip_l/hip_adduction_l/value	/jointset/hip_l/hip_rotation_l/value	/jointset/back/lumbar_extension/value	/jointset/patellofemoral_l/patellar_flexion_l/value	/jointset/knee_l/knee_flexion_l/value	/jointset/knee_l/knee_adduction_l/value	/jointset/knee_l/knee_rotation_l/value	/jointset/ankle_l/ankle_angle_l/value	/jointset/subtalar_l/subtalar_angle_l/value	/jointset/ground_pelvis/pelvis_tilt/speed	/jointset/ground_pelvis/pelvis_tx/speed	/jointset/ground_pelvis/pelvis_ty/speed	/jointset/hip_l/hip_flexion_l/speed	/jointset/hip_l/hip_adduction_l/speed	/jointset/hip_l/hip_rotation_l/speed	/jointset/back/lumbar_extension/speed	/jointset/patellofemoral_l/patellar_flexion_l/speed	/jointset/knee_l/knee_flexion_l/speed	/jointset/knee_l/knee_adduction_l/speed	/jointset/knee_l/knee_rotation_l/speed	/jointset/ankle_l/ankle_angle_l/speed	/jointset/subtalar_l/subtalar_angle_l/speed	/forceset/tau_hip_flexion_l	/forceset/tau_hip_adduction_l	/forceset/tau_hip_rotation_l	/forceset/tau_knee_flexion_l	/forceset/tau_ankle_angle_l	/forceset/tau_subtalar_angle_l	/forceset/tau_lumbar_extension	lambda_cid13_p0	lambda_cid13_p1	lambda_cid13_p2	lambda_cid13_p3	lambda_cid13_p4	lambda_cid13_p5	lambda_cid14_p0	/jointset/ground_pelvis/pelvis_tilt/accel	/jointset/ground_pelvis/pelvis_tx/accel	/jointset/ground_pelvis/pelvis_ty/accel	/jointset/hip_l/hip_flexion_l/accel	/jointset/hip_l/hip_adduction_l/accel	/jointset/hip_l/hip_rotation_l/accel	/jointset/back/lumbar_extension/accel	/jointset/patellofemoral_l/patellar_flexion_l/accel	/jointset/knee_l/knee_flexion_l/accel	/jointset/knee_l/knee_adduction_l/accel	/jointset/knee_l/knee_rotation_l/accel	/jointset/ankle_l/ankle_angle_l/accel	/jointset/subtalar_l/subtalar_angle_l/accel	gamma_cid13_p0	gamma_cid13_p1	gamma_cid13_p2	gamma_cid13_p3	gamma_cid13_p4	gamma_cid13_p5	gamma_cid14_p0
0.5	-0.2110447058013593	0.025579408431792	0.7667230575510751	1.008325686824472	-0.361559951381502	0.002022565679957977	-0.4026594643013631	0.981924624145713	0.9819246241437649	-0.02674904735122121	-0.1744873539358461	0.3151032507113821	0.1665790864580511	-0.7386334695986969	-0.1714804022964229	-0.5461131640826535	2.427718265524445	0.04571923505007425	0.535276794579387	-0.306355422763656	2.049950889687969	2.049950889687938	0.3340008807558945	0.0001459242428760914	0.5311590727433838	0.2868203110626044	-0.09744079851054151	0.05411707787195359	-0.002439341085980952	-0.2181895748949517	0.03315377534868047	-0.004440906566600954	0.1133069415801474	-15.55450035359352	9.004180909625891	-6.687570609123955	-5.340930495290655	-440.8373079138764	-43.27117835918137	-4.158243258279355	0.2654167667159453	0.5328763495247008	-0.4482608251426533	-1.372614270602081	0.09697137186119362	-0.8470670749633913	1.537558242257679	-1.766825470195557	-1.766825470195416	-0.1736317661790587	0.03562079655077784	-0.8275231247075039	0.1221277318270812	-5.064508549685033e-07	3.567619523179553e-07	7.444404318274989e-06	5.098086456637308e-07	-1.430151710124493e-06	-6.760506968305656e-07	-8.708323964355105e-07
0.51	-0.218415674556949	0.02389159036604728	0.7612409190783439	1.032529165900653	-0.3611007372351731	0.007340307836756983	-0.4056469170953312	1.002332247699123	1.002332247697084	-0.0234288529289292	-0.1744835560924514	0.320371974347856	0.1694486532865005	-0.7354504944230709	-0.1660571466856084	-0.5501838585808939	2.412634605829622	0.04611148892580812	0.5282260670664207	-0.291102473862757	2.031296230592866	2.031296230592854	0.3300188737585255	0.0005823819167039663	0.5225294179954197	0.2870397533461462	-0.1021558947279717	0.05519347186562866	-0.002857458271115414	-0.2209897924954899	0.03195901100312758	-0.004022772032039918	0.1169662619172623	-16.14856104803085	9.113704526695686	-6.918751146999432	-5.287775267093826	-444.3802515314646	-43.29336529807392	-3.569324195602344	0.3611835810915963	0.5510666565359004	-0.3671511232138924	-1.627736247775707	0.007364401548546597	-0.6417341113541449	1.524062539036818	-1.956253809628651	-1.956253809626126	-0.5132289189920353	0.04440165838240961	-0.8891067508984407	-0.03711829033023173	-4.802493028165027e-07	6.858528975254145e-07	7.349058506095867e-06	5.433001598216965e-07	-1.352909174647612e-06	-2.666040169334403e-07	-8.433620718388319e-07
0.52	-0.2257515244231666	0.02225880815434556	0.7557219381884221	1.056571509494123	-0.3606381981488591	0.01258601101404542	-0.4084808605352817	1.022545031125502	1.022545031123343	-0.02014902732718943	-0.1744760449911831	0.3255527174166374	0.172318620384396	-0.7316096917232034	-0.1604732314878212	-0.5534816475209934	2.395491168980682	0.04638422304629466	0.5208689986778201	-0.2756535519606106	2.01098286427933	2.010982864279333	0.3259271166621199	0.000888575813872127	0.5135629592051525	0.2869003649517645	-0.1068709909452743	0.05626986585931119	-0.003275575456839585	-0.2237900100960155	0.03076424665757221	-0.003604637497459583	0.1206255822544971	-16.73747494599178	9.214428107228555	-7.139502258778361	-5.28812662178921	-447.841497160331	-43.43405340428507	-3.031523383934497	0.3969822715642902	0.5650082669191349	-0.2936797135144795	-1.784569701425559	0.07306742081173649	-0.9083352500902581	1.576752842507134	-2.098566913882408	-2.098566913882477	-0.1955817859862528	0.009568041218920475	-0.8948839331682006	0.05036159624242913	-4.556500189144073e-07	9.116806400084332e-07	7.211393012274384e-06	5.614345138958732e-07	-1.276521773552683e-06	9.623333424436925e-08	-8.21062959474155e-07
0.53	-0.2330458732219468	0.02068235031348822	0.750173856862779	1.080432785301169	-0.3601732065463595	0.01775696188867326	-0.4111598169709657	1.042546532806026	1.042546532803983	-0.01691051740441939	-0.1744658574526678	0.3306418504217473	0.1751856150570071	-0.7271618316627373	-0.1548232361355462	-0.5560012919713343	2.376464685628138	0.0466097408848096	0.5132822478997043	-0.2601605657511127	1.989034148408204	1.98903414840823	0.321756812279875	0.001127549452500415	0.5041685811732538	0.286433502967606	-0.1116755806966835	0.05734780335779206	-0.003542564135717996	-0.2262465952895689	0.0285402100046364	-0.003330110590878154	0.1241967884450685	-17.69125106435135	9.422746417869298	-7.356098041112335	-4.749704855931122	-451.3686443676638	-43.40631001356104	-2.543429596435279	0.483405770120421	0.5643744432934847	-0.2113552452051433	-2.006629589396578	-0.004506108639333869	-0.6904356649670216	1.53214692387253	-2.285360566092921	-2.285360566089599	-0.5303255047147273	0.02926141790220442	-0.9759409623181835	-0.1059850507320427	-4.022363839461172e-07	8.51592593035727e-07	6.479039341147382e-06	5.045913764262375e-07	-1.121771514747435e-06	2.615734998418223e-07	-7.44812464619057e-07
0.54	-0.2402927998407606	0.0191622682809357	0.7446045294057518	1.104094807887254	-0.3597063197802727	0.02285072712085664	-0.4136845284618119	1.062320079999359	1.062320079997446	-0.01371422467353057	-0.1744536402992363	0.3356341944017146	0.1780457861187794	-0.7221252557289434	-0.1491980698268555	-0.5577308737980495	2.355640524786499	0.04676325576289076	0.5054318701897883	-0.2448045629935431	1.965391966842475	1.96539196684252	0.317483678282788	0.001294498799826831	0.4942051541766559	0.285535642783959	-0.1164801704479676	0.05842574085627052	-0.003809552814219675	-0.2287031804831017	0.02631617335168807	-0.003055583684313403	0.1277679946357582	-18.64146079550715	9.623045302256033	-7.562964573638948	-4.255564414180999	-454.8287734716857	-43.49144012215774	-2.103554854356183	0.5147254462299656	0.5600424582022152	-0.1356671887893397	-2.144105199244585	0.05866682872502223	-0.9610606364503678	1.549356152121445	-2.437260052803009	-2.437260052803688	-0.2161477089545852	-0.004836817041419222	-1.008693726108088	-0.03583804365526477	-3.169430414152283e-07	4.751721832609385e-07	5.088732793001502e-06	3.64794418525149e-07	-8.803219240073641e-07	2.08406140967389e-07	-6.088710784979605e-07
